<?xml version="1.0" encoding="UTF-8" standalone="no"?>
<svg
   width="26mm"
   height="26mm"
   viewBox="0 0 26 26"
   version="1.1"
   id="svg1"
   xmlns="http://www.w3.org/2000/svg"
   xmlns:svg="http://www.w3.org/2000/svg">
  <defs
     id="defs1">
    <clipPath
       clipPathUnits="userSpaceOnUse"
       id="clipPath20">
      <path
         d="M 0,559.806 H 930.8 V 0 H 0 Z"
         transform="translate(-279.65371,-299.6206)"
         id="path20" />
    </clipPath>
    <clipPath
       clipPathUnits="userSpaceOnUse"
       id="clipPath22">
      <path
         d="M 0,559.806 H 930.8 V 0 H 0 Z"
         transform="translate(-245.79921,-296.0614)"
         id="path22" />
    </clipPath>
  </defs>
  <g
     id="layer1"
     transform="translate(-95.514578,-135.73125)">
    <path
       id="path19"
       d="m 0,0 h -7.524 c -0.728,0 -1.219,-0.756 -0.904,-1.414 1.711,-3.58 2.67,-7.587 2.67,-11.828 0,-7.6 -3.07,-14.445 -8.047,-19.43 -4.987,-4.988 -11.833,-8.049 -19.432,-8.057 -7.61,0.008 -14.454,3.069 -19.441,8.057 -4.978,4.985 -8.047,11.83 -8.047,19.43 0,7.6 3.069,14.444 8.047,19.431 3.35,3.35 7.538,5.826 12.233,7.091 0.464,0.125 0.791,0.536 0.791,1.015 v 6.999 c 0,0.687 -0.632,1.215 -1.302,1.07 -6.965,-1.503 -13.194,-5.001 -18.04,-9.847 -6.587,-6.576 -10.669,-15.715 -10.669,-25.759 0,-10.044 4.082,-19.182 10.669,-25.759 6.576,-6.577 15.716,-10.67 25.759,-10.67 10.043,0 19.174,4.093 25.75,10.67 6.587,6.577 10.669,15.715 10.669,25.759 0,4.413 -0.793,8.666 -2.236,12.589 C 0.802,-0.258 0.419,0 0,0"
       style="fill:#000000;fill-opacity:1;fill-rule:nonzero;stroke:none"
       transform="matrix(0.35548844,0,0,-0.35548844,120.33596,143.90505)"
       clip-path="url(#clipPath20)" />
    <path
       id="path21"
       d="m 0,0 c -6.207,0 -11.161,-5.375 -10.454,-11.726 0.532,-4.797 4.425,-8.7 9.22,-9.245 6.309,-0.717 11.653,4.15 11.746,10.29 l 0.014,0.004 v 26.291 c 2.503,-0.988 4.995,-2.436 7.073,-4.093 0.144,-0.114 0.319,-0.177 0.502,-0.177 h 10.321 c 0.67,0 1.038,0.777 0.619,1.303 -0.859,1.087 -1.781,2.12 -2.758,3.098 -6.308,6.318 -14.971,10.342 -24.548,10.649 v -8.95 h 0.011 c 0.002,0 0.003,-0.002 0.005,-0.002 V 0.669 C 1.751,0.242 1.382,-0.092 0.956,-0.05 0.641,-0.018 0.322,0 0,0"
       style="fill:#fbbf24;fill-opacity:1;fill-rule:nonzero;stroke:none"
       transform="matrix(0.35548844,0,0,-0.35548844,108.30108,145.17029)"
       clip-path="url(#clipPath22)" />
  </g>
</svg>
